<svg width="82" height="32" viewBox="0 0 82 32" fill="none" xmlns="http://www.w3.org/2000/svg">
<path d="M31.1766 12.792C28.0735 12.792 26.6491 14.1019 26.6491 17.0961V17.5563C26.6491 20.3975 27.8875 21.7758 30.8034 21.7758C31.7368 21.7758 32.6691 21.6054 33.3311 21.0779V21.4187C33.3311 23.0173 32.6356 23.5447 31.0078 23.5447H30.0344C29.4763 23.5556 29.2232 23.6533 28.8869 24.2067C27.5088 26.3998 25.599 28.2062 23.3359 29.4572C21.0729 30.7082 18.5306 31.3627 15.9468 31.3597C7.5105 31.3597 0.639218 24.4694 0.639218 16C0.639218 7.53063 7.50617 0.640306 15.9468 0.640306C18.8486 0.6426 21.6902 1.47147 24.141 3.03052C26.5918 4.58957 28.5511 6.81472 29.7911 9.4472H30.4941C29.2331 6.6341 27.1895 4.24617 24.6087 2.5703C22.028 0.894437 19.0198 0.00192441 15.9457 0C7.15357 0 0 7.17792 0 16C0 24.8221 7.15357 32 15.9457 32C18.4676 32.0024 20.9539 31.4034 23.1997 30.2524C25.4456 29.1014 27.3867 27.4314 28.8631 25.3799H31.1441C34.1455 25.3799 35.6868 24.2393 35.6868 21.3297V16.9431C35.6878 14.0509 34.2126 12.792 31.1766 12.792ZM33.3473 17.8439C33.3473 19.4435 32.7881 19.9373 31.1766 19.9373C29.3628 19.9373 29.0069 19.3079 29.0069 17.4532V17.1634C29.0069 15.326 29.3314 14.6673 31.1766 14.6673C32.9915 14.6673 33.3473 15.3185 33.3473 17.1862V17.8439ZM9.28537 9.57634V17.9328C9.28537 21.0291 10.7098 22.3227 13.8129 22.3227C17.0349 22.3227 18.4637 21.0627 18.4637 17.9491V17.1493C18.4637 14.2191 17.1409 12.7941 14.2574 12.7941C13.3424 12.7941 12.3419 12.9808 11.6616 13.5082V9.20192L9.28537 9.57634ZM13.8972 14.663C15.525 14.663 16.1015 15.3141 16.1015 17.2329V17.9524C16.1015 19.8245 15.525 20.4713 13.8637 20.4713C12.2024 20.4713 11.6248 19.8201 11.6248 17.9361V16.9659C11.6248 15.2392 12.2013 14.663 13.8972 14.663ZM25.4788 14.9885L25.8692 13.0828H22.5163V10.4782L20.1585 10.8352V18.6111C20.1585 21.2993 21.2109 22.0992 24.076 22.0992H25.3306L25.7211 20.2108H24.2415C22.936 20.2108 22.5109 19.8852 22.5109 18.4581V14.9853L25.4788 14.9885Z" fill="white"/>
<path d="M42.2324 13.4637C39.9179 13.4637 38.8363 14.613 38.8363 17.0842V23.7987H39.5685V20.3475C40.0974 21.0378 41.0827 21.4426 42.2725 21.4426C44.5806 21.4426 45.6102 20.3258 45.6102 17.8243V17.0646C45.6113 14.5729 44.5687 13.4637 42.2324 13.4637ZM44.8585 17.8243C44.8585 19.9416 44.1587 20.7285 42.2735 20.7285C40.4889 20.7285 39.5837 19.8602 39.5837 18.1336V17.0842C39.5837 15.0222 40.3516 14.18 42.2324 14.18C44.1133 14.18 44.8585 14.9885 44.8585 17.0635V17.8243ZM76.3996 13.5918H74.4203L74.2559 14.3048H76.4039C78.368 14.3048 79.0311 14.829 79.0311 16.3842V17.1352C78.5433 16.6468 77.6823 16.3983 76.4656 16.3983C74.5187 16.3983 73.5799 17.2241 73.5799 18.9226V19.0376C73.5799 20.6297 74.509 21.4382 76.3423 21.4382H76.8355C78.7823 21.4382 79.7622 20.6297 79.7622 19.0376V16.3798C79.7579 14.396 78.7845 13.5874 76.3996 13.5874V13.5918ZM79.0267 19.1461C79.0267 20.2857 78.4048 20.7295 76.8106 20.7295H76.5023C74.9632 20.7295 74.3067 20.2249 74.3067 19.043V18.9182C74.3067 17.6344 74.933 17.0874 76.3996 17.0874H76.5229C78.2772 17.0874 79.0267 17.6159 79.0267 18.8564V19.1461ZM81.2689 10.6366V21.4436H82V10.6355L81.2689 10.6366ZM64.7856 14.3015L64.9489 13.5885H61.6771V11.5493L60.92 11.6839V18.673C60.92 20.6633 61.663 21.4035 63.6618 21.4035H64.7434L64.8808 20.6894H63.6629C62.1562 20.6894 61.6739 20.2097 61.6739 18.7142V14.3005L64.7856 14.3015ZM71.5595 18.3409C71.5595 20.1804 70.9863 20.7708 69.1995 20.7708C67.469 20.7708 66.8806 20.1576 66.8806 18.3409V13.5874H66.1235V18.3398C66.1235 20.6026 66.9888 21.4871 69.1941 21.4871C71.3994 21.4871 72.2852 20.5765 72.2852 18.3398V13.5874H71.5541L71.5595 18.3409ZM49.5958 13.5885H47.6133L47.4489 14.3015H49.5958C51.5427 14.3015 52.2024 14.8257 52.2024 16.3809V17.1319C51.7157 16.6435 50.8548 16.395 49.6369 16.395C47.6955 16.395 46.7513 17.2209 46.7513 18.9193V19.0376C46.7513 20.6297 47.688 21.4382 49.5342 21.4382H50.0285C51.9569 21.4382 52.9347 20.6297 52.9347 19.0376V16.3798C52.9347 14.396 51.9678 13.5874 49.5958 13.5874V13.5885ZM52.2024 19.1461C52.2024 20.3009 51.6076 20.7295 50.0079 20.7295H49.6986C48.1455 20.7295 47.4835 20.2249 47.4835 19.043V18.9182C47.4835 17.6344 48.1087 17.0874 49.5753 17.0874H49.6986C51.454 17.0874 52.2024 17.6159 52.2024 18.8564V19.1461ZM55.0146 17.8254V17.1645C55.0146 15.0504 55.7349 14.3015 57.7661 14.3015H59.4815L59.6448 13.5885H57.7639C55.3412 13.5885 54.2607 14.6911 54.2607 17.1699V17.8308C54.2607 20.3041 55.3423 21.4122 57.7639 21.4122H59.4945L59.6589 20.6981H57.7639C55.7825 20.6872 55.0113 19.8852 55.0113 17.8243L55.0146 17.8254Z" fill="white"/>
</svg>
