<svg width="64" height="65" viewBox="0 0 64 65" fill="none" xmlns="http://www.w3.org/2000/svg">
<circle cx="32" cy="32.5" r="32" fill="#B1D2FF"/>
<path d="M45.3283 21.2337H43.245V17.9004H43.6617C43.9932 17.9004 44.3111 17.7687 44.5455 17.5343C44.78 17.2999 44.9117 16.9819 44.9117 16.6504C44.9117 16.3189 44.78 16.0009 44.5455 15.7665C44.3111 15.5321 43.9932 15.4004 43.6617 15.4004H20.3283C19.9968 15.4004 19.6789 15.5321 19.4444 15.7665C19.21 16.0009 19.0783 16.3189 19.0783 16.6504C19.0783 16.9819 19.21 17.2999 19.4444 17.5343C19.6789 17.7687 19.9968 17.9004 20.3283 17.9004H20.745V21.2337H18.6617C17.1181 21.3532 15.6838 22.0764 14.6698 23.2463C13.6558 24.4163 13.1439 25.9388 13.245 27.4837C13.1439 29.0286 13.6558 30.5511 14.6698 31.7211C15.6838 32.8911 17.1181 33.6142 18.6617 33.7337H21.995C22.1809 33.733 22.3639 33.6873 22.5283 33.6004C23.8842 35.7249 25.9335 37.3149 28.3283 38.1004C28.3283 38.4004 28.4283 38.8171 28.4617 39.3004C28.5564 40.2256 28.5001 41.16 28.295 42.0671C27.8086 43.3987 27.1473 44.6598 26.3283 45.8171C25.995 46.3171 25.695 46.7337 25.4283 47.1004H23.6617C23.3301 47.1004 23.0122 47.2321 22.7778 47.4665C22.5434 47.7009 22.4117 48.0189 22.4117 48.3504C22.4117 48.6819 22.5434 48.9999 22.7778 49.2343C23.0122 49.4687 23.3301 49.6004 23.6617 49.6004H40.3283C40.6598 49.6004 40.9778 49.4687 41.2122 49.2343C41.4466 48.9999 41.5783 48.6819 41.5783 48.3504C41.5783 48.0189 41.4466 47.7009 41.2122 47.4665C40.9778 47.2321 40.6598 47.1004 40.3283 47.1004H38.5617C38.295 46.7337 37.995 46.3171 37.6617 45.8171C36.8504 44.6909 36.1893 43.4639 35.695 42.1671C35.4899 41.26 35.4336 40.3256 35.5283 39.4004C35.5283 38.9171 35.6117 38.5004 35.6617 38.2004C37.2034 37.6825 38.6139 36.8351 39.795 35.7171C40.4319 35.1103 40.9917 34.4273 41.4617 33.6837C41.626 33.7706 41.809 33.8164 41.995 33.8171H45.3283C46.1003 33.7581 46.853 33.5473 47.5434 33.1969C48.2337 32.8464 48.8481 32.3632 49.3513 31.7748C49.8546 31.1864 50.2367 30.5045 50.4758 29.7682C50.715 29.0318 50.8065 28.2555 50.745 27.4837C50.8461 25.9388 50.3342 24.4163 49.3202 23.2463C48.3062 22.0764 46.8719 21.3532 45.3283 21.2337ZM18.6617 31.2337C17.784 31.1091 16.9891 30.6483 16.4449 29.9486C15.9007 29.2489 15.6497 28.365 15.745 27.4837C15.6497 26.6024 15.9007 25.7186 16.4449 25.0188C16.9891 24.3191 17.784 23.8583 18.6617 23.7337H20.745V27.6171C20.7479 28.8485 20.9563 30.0709 21.3617 31.2337H18.6617ZM33.295 42.8337C33.8434 44.3367 34.5888 45.8269 35.5117 47.1337H28.4783C29.4012 45.8269 30.1466 44.4033 30.695 42.9004C30.9852 41.6728 30.945 40.4004 30.945 39.1504V38.6837C31.3117 38.6837 31.6783 38.6837 32.045 38.6837C32.4117 38.6837 32.7783 38.6837 33.1283 38.6837C33.1283 38.8504 33.1283 39.0171 33.1283 39.2004C33.1283 40.4004 33.0453 41.6393 33.295 42.8337ZM38.0617 33.8837C36.4194 35.4221 34.245 36.2644 31.995 36.2337C29.8513 36.2308 27.7804 35.4557 26.1617 34.0504C25.2477 33.2457 24.5152 32.256 24.0123 31.147C23.5095 30.0379 23.248 28.8348 23.245 27.6171V17.9004H40.745V27.6171C40.7472 28.7793 40.5101 29.9296 40.0485 30.9963C39.5869 32.063 38.9105 33.0898 38.0617 33.8837ZM45.3283 31.2337H42.6283C43.0352 30.0713 43.2437 28.8487 43.245 27.6171V23.7337H45.3283C46.206 23.8583 47.0008 24.3191 47.5451 25.0188C48.0893 25.7186 48.3403 26.6024 48.245 27.4837C48.3403 28.365 48.0893 29.2489 47.5451 29.9486C47.0008 30.6483 46.206 31.1091 45.3283 31.2337Z" fill="black" fill-opacity="0.96"/>
</svg>